#!OML:ASF H:\Punching\Project 1\Capture day 1\Session 1\female.ASF
:FULLY-SPECIFIED
:DEGREES
1859
root 2.91974 14.4925 1.26097 16.1309 16.5923 5.3412
lowerback -4.32576 -3.39683 0.594077
upperback -7.32755 -4.48012 1.13726
thorax -5.12456 -2.22735 0.855191
lowerneck -14.1629 4.60649 7.89721
upperneck 34.4315 8.42161 -10.319
head 15.2145 3.3371 -4.27079
rclavicle 2.13694e-015 1.59028e-014
rhumerus 18.1427 20.8183 -57.2632
rradius 131.062
rwrist -16.894
rhand -32.8664 7.59347
rfingers 7.12502
rthumb -6.08521 -22.2991
lclavicle 2.13694e-015 1.59028e-014
lhumerus 4.42102 -21.6437 70.239
lradius 138.625
lwrist 1.7036
lhand -26.2252 -0.436268
lfingers 7.12502
lthumb 0.32821 29.5432
rfemur -56.1504 -15.2396 16.1902
rtibia 56.909
rfoot -14.4879 -16.2487
rtoes 8.6671
lfemur 2.323 -11.1758 -12.9008
ltibia 24.6779
lfoot -203.839 198.877
ltoes -22.2407
1860
root 2.97696 14.4846 1.16154 16.107 16.8627 5.16366
lowerback -4.19832 -3.29264 0.612312
upperback -7.26438 -4.33322 1.30283
thorax -5.11868 -2.14936 1.0209
lowerneck -14.2229 4.40321 7.81591
upperneck 34.3263 8.05609 -10.1466
head 15.112 3.19236 -4.23996
rclavicle -3.9993e-014 -2.14687e-014
rhumerus 18.0633 20.3511 -57.2616
rradius 131.146
rwrist -16.8335
rhand -32.8807 7.52225
rfingers 7.12502
rthumb -6.099 -22.37
lclavicle -3.9993e-014 -2.14687e-014
lhumerus 4.72171 -21.8892 70.2223
lradius 138.578
lwrist 1.69741
lhand -26.168 -0.515504
lfingers 7.12502
lthumb 0.383476 29.4639
rfemur -56.2509 -15.3734 15.9973
rtibia 56.5512
rfoot -13.7856 -16.2298
rtoes 8.29224
lfemur 2.20676 -11.3599 -13.0403
ltibia 24.4149
lfoot -204.974 199.26
ltoes -21.7191
1861
root 3.03336 14.4778 1.0617 16.1045 17.0948 5.07821
lowerback -4.07435 -3.19784 0.522243
upperback -7.2008 -4.19948 1.43926
thorax -5.10541 -2.07345 1.21591
lowerneck -14.2732 4.20998 7.75939
upperneck 34.2364 7.70076 -9.972
head 15.0191 3.05541 -4.21165
rclavicle 3.47128e-014 1.19271e-014
rhumerus 17.9773 19.9216 -57.3038
rradius 131.215
rwrist -16.7596
rhand -32.9039 7.44475
rfingers 7.12502
rthumb -6.12145 -22.4468
lclavicle 3.47128e-014 1.19271e-014
lhumerus 5.01627 -22.1489 70.1905
lradius 138.538
lwrist 1.67074
lhand -26.1045 -0.562654
lfingers 7.12502
lthumb 0.4448 29.4166
rfemur -56.3656 -15.5342 15.7059
rtibia 56.2168
rfoot -13.0327 -16.1444
rtoes 7.68663
lfemur 2.07076 -11.4966 -13.2719
ltibia 24.1504
lfoot -205.953 199.636
ltoes -21.2322
1862
root 3.08888 14.4727 0.961829 16.1295 17.3035 5.08092
lowerback -3.95923 -3.11535 0.337499
upperback -7.13546 -4.08335 1.54562
thorax -5.08171 -2.0027 1.43156
lowerneck -14.3313 4.0286 7.72694
upperneck 34.1667 7.3566 -9.79222
head 14.9418 2.92646 -4.18438
rclavicle 3.59055e-015 1.19271e-014
rhumerus 17.8857 19.527 -57.3962
rradius 131.273
rwrist -16.6971
rhand -32.9196 7.37406
rfingers 7.12502
rthumb -6.13659 -22.5171
lclavicle 3.59055e-015 1.19271e-014
lhumerus 5.31134 -22.4157 70.1376
lradius 138.507
lwrist 1.63039
lhand -26.0509 -0.592662
lfingers 7.12502
lthumb 0.496546 29.3865
rfemur -56.4956 -15.7305 15.3224
rtibia 55.9075
rfoot -12.2649 -15.9903
rtoes 6.91727
lfemur 1.91102 -11.5853 -13.5899
ltibia 23.8728
lfoot -206.777 200.031
ltoes -20.7909
1863
root 3.14342 14.4699 0.86209 16.1836 17.509 5.16135
lowerback -3.86259 -3.0495 0.0817049
upperback -7.06875 -3.99096 1.62186
thorax -5.04421 -1.94149 1.65436
lowerneck -14.3891 3.85708 7.7149
upperneck 34.1117 7.02024 -9.60417
head 14.8745 2.80432 -4.15657
rclavicle -5.57964e-014 3.97569e-015
rhumerus 17.7855 19.1716 -57.5431
rradius 131.327
rwrist -16.6575
rhand -32.9405 7.34218
rfingers 7.12502
rthumb -6.1568 -22.5484
lclavicle -5.57964e-014 3.97569e-015
lhumerus 5.60561 -22.6914 70.0606
lradius 138.474
lwrist 1.57226
lhand -26.025 -0.628516
lfingers 7.12502
lthumb 0.521589 29.3506
rfemur -56.6324 -15.9632 14.8498
rtibia 55.6209
rfoot -11.492 -15.764
rtoes 5.98619
lfemur 1.72465 -11.6489 -13.9805
ltibia 23.5741
lfoot -207.464 200.447
ltoes -20.3398
1864
root 3.1971 14.47 0.762695 16.2609 17.7284 5.28805
lowerback -3.78317 -3.00162 -0.203863
upperback -7.0064 -3.9238 1.67625
thorax -5.00175 -1.89236 1.87048
lowerneck -14.4341 3.69512 7.72156
upperneck 34.0677 6.6936 -9.41197
head 14.8126 2.68948 -4.12926
rclavicle 1.30887e-014 2.70347e-014
rhumerus 17.6727 18.8652 -57.7453
rradius 131.383
rwrist -16.6452
rhand -32.9563 7.35395
rfingers 7.12502
rthumb -6.17203 -22.5361
lclavicle 1.30887e-014 2.70347e-014
lhumerus 5.88873 -22.9646 69.9651
lradius 138.448
lwrist 1.53183
lhand -26.0044 -0.671734
lfingers 7.12502
lthumb 0.541476 29.3073
rfemur -56.7619 -16.2217 14.3095
rtibia 55.3456
rfoot -10.7166 -15.4766
rtoes 4.86497
lfemur 1.50813 -11.7052 -14.4103
ltibia 23.257
lfoot -208.039 200.901
ltoes -19.824
1865
root 3.25011 14.4727 0.663616 16.3539 17.9683 5.43539
lowerback -3.71626 -2.96897 -0.483852
upperback -6.95123 -3.87795 1.71446
thorax -4.96163 -1.85486 2.06661
lowerneck -14.4619 3.54074 7.74125
upperneck 34.0312 6.37644 -9.21849
head 14.7532 2.58089 -4.10251
rclavicle 4.12633e-014 -1.59028e-015
rhumerus 17.5436 18.6081 -58
rradius 131.441
rwrist -16.6619
rhand -32.9575 7.41821
rfingers 7.12502
rthumb -6.17321 -22.4718
lclavicle 4.12633e-014 -1.59028e-015
lhumerus 6.15459 -23.2328 69.8532
lradius 138.427
lwrist 1.51111
lhand -26.0034 -0.737545
lfingers 7.12502
lthumb 0.542472 29.2415
rfemur -56.8678 -16.49 13.7171
rtibia 55.0669
rfoot -9.95849 -15.1317
rtoes 3.60359
lfemur 1.26233 -11.7738 -14.8559
ltibia 22.9317
lfoot -208.543 201.388
ltoes -19.1724
1866
root 3.3027 14.4782 0.564836 16.4498 18.2324 5.56409
lowerback -3.65653 -2.94646 -0.713184
upperback -6.90581 -3.84613 1.74663
thorax -4.9316 -1.82709 2.22857
lowerneck -14.4677 3.39233 7.76789
upperneck 34.0015 6.0692 -9.02558
head 14.6946 2.47786 -4.07589
rclavicle 4.16885e-015 4.77083e-015
rhumerus 17.4069 18.4033 -58.2946
rradius 131.499
rwrist -16.6966
rhand -32.9556 7.5327
rfingers 7.12502
rthumb -6.17139 -22.3574
lclavicle 4.16885e-015 4.77083e-015
lhumerus 6.40435 -23.5 69.736
lradius 138.396
lwrist 1.49307
lhand -26.0259 -0.8042
lfingers 7.12502
lthumb 0.520768 29.1749
rfemur -56.9324 -16.7486 13.1057
rtibia 54.764
rfoot -9.2162 -14.7406
rtoes 2.2133
lfemur 0.984361 -11.8608 -15.2776
ltibia 22.6194
lfoot -209.017 201.889
ltoes -18.3236
1867
root 3.35509 14.4857 0.466623 16.5371 18.5142 5.64859
lowerback -3.59903 -2.92754 -0.865266
upperback -6.87218 -3.8192 1.78223
thorax -4.91766 -1.8053 2.35168
lowerneck -14.4513 3.24842 7.79437
upperneck 33.9792 5.77642 -8.84523
head 14.6376 2.37987 -4.05243
rclavicle -1.46883e-014 2.46493e-014
rhumerus 17.2666 18.2575 -58.6072
rradius 131.56
rwrist -16.7248
rhand -32.9587 7.65809
rfingers 7.12502
rthumb -6.17435 -22.2319
lclavicle -1.46883e-014 2.46493e-014
lhumerus 6.6189 -23.7519 69.6273
lradius 138.37
lwrist 1.49431
lhand -26.0367 -0.851169
lfingers 7.12502
lthumb 0.510292 29.128
rfemur -56.9452 -16.9739 12.4933
rtibia 54.4214
rfoot -8.48319 -14.3339
rtoes 0.71233
lfemur 0.678781 -11.965 -15.655
ltibia 22.3413
lfoot -209.495 202.403
ltoes -17.2731
1868
root 3.40742 14.4948 0.369195 16.607 18.7959 5.66893
lowerback -3.54139 -2.89869 -0.921696
upperback -6.84236 -3.77896 1.82345
thorax -4.91427 -1.78125 2.42766
lowerneck -14.4419 3.10707 7.81331
upperneck 33.9685 5.49478 -8.67481
head 14.5902 2.28423 -4.03035
rclavicle 4.01669e-014 -2.54444e-014
rhumerus 17.141 18.1499 -58.9212
rradius 131.614
rwrist -16.733
rhand -32.9595 7.80423
rfingers 7.12502
rthumb -6.17515 -22.0858
lclavicle 4.01669e-014 -2.54444e-014
lhumerus 6.82634 -23.9952 69.5275
lradius 138.34
lwrist 1.47987
lhand -26.0592 -0.86147
lfingers 7.12502
lthumb 0.488572 29.1177
rfemur -56.9036 -17.1375 11.8954
rtibia 54.0266
rfoot -7.75143 -13.9481
rtoes -0.814025
lfemur 0.350437 -12.0804 -15.9739
ltibia 22.1161
lfoot -210.011 202.917
ltoes -15.991
1869
root 3.45978 14.5046 0.272886 16.6599 19.0622 5.64194
lowerback -3.48103 -2.85694 -0.9032
upperback -6.81645 -3.72131 1.87022
thorax -4.92178 -1.75183 2.46802
lowerneck -14.4438 2.96834 7.81507
upperneck 33.9705 5.22951 -8.52133
head 14.554 2.19101 -4.01005
rclavicle 4.44719e-014 3.57812e-014
rhumerus 17.0348 18.0866 -59.2123
rradius 131.673
rwrist -16.7019
rhand -32.9713 7.92347
rfingers 7.12502
rthumb -6.18648 -21.9662
lclavicle 4.44719e-014 3.57812e-014
lhumerus 7.02387 -24.2242 69.4562
lradius 138.299
lwrist 1.46161
lhand -26.0687 -0.865269
lfingers 7.12502
lthumb 0.479439 29.1139
rfemur -56.8098 -17.2359 11.2943
rtibia 53.583
rfoot -7.0232 -13.6085
rtoes -2.27656
lfemur 0.00811434 -12.2153 -16.2555
ltibia 21.9518
lfoot -210.586 203.417
ltoes -14.4926
1870
root 3.5119 14.5144 0.178283 16.6908 19.2934 5.56024
lowerback -3.41642 -2.79346 -0.8158
upperback -6.79102 -3.63415 1.9265
thorax -4.93718 -1.71062 2.48
lowerneck -14.4769 2.83234 7.79527
upperneck 33.9908 4.98113 -8.38524
head 14.536 2.09949 -3.99113
rclavicle -2.91592e-014 3.97569e-015
rhumerus 16.9485 18.0581 -59.4701
rradius 131.736
rwrist -16.6309
rhand -32.9832 8.02217
rfingers 7.12502
rthumb -6.19795 -21.8672
lclavicle -2.91592e-014 3.97569e-015
lhumerus 7.21334 -24.4339 69.4225
lradius 138.258
lwrist 1.44352
lhand -26.0381 -0.856688
lfingers 7.12502
lthumb 0.508959 29.1224
rfemur -56.672 -17.2516 10.7034
rtibia 53.1038
rfoot -6.3486 -13.3245
rtoes -3.6519
lfemur -0.336406 -12.3572 -16.4936
ltibia 21.8462
lfoot -211.198 203.909
ltoes -12.8957
1871
root 3.5635 14.5233 0.0856515 16.7089 19.4756 5.45452
lowerback -3.35128 -2.71168 -0.697457
upperback -6.78127 -3.52189 1.98726
thorax -4.97213 -1.65787 2.4798
lowerneck -14.4749 2.69617 7.75015
upperneck 34.0144 4.74959 -8.26523
head 14.5138 2.0108 -3.97167
rclavicle 2.58296e-014 -1.11319e-014
rhumerus 16.8563 18.0887 -59.7017
rradius 131.807
rwrist -16.516
rhand -32.987 8.09585
rfingers 7.12502
rthumb -6.20164 -21.7934
lclavicle 2.58296e-014 -1.11319e-014
lhumerus 7.35228 -24.6336 69.4396
lradius 138.214
lwrist 1.41893
lhand -25.9973 -0.884489
lfingers 7.12502
lthumb 0.548329 29.0945
rfemur -56.5061 -17.1955 10.1024
rtibia 52.6159
rfoot -5.79232 -13.0727
rtoes -5.03285
lfemur -0.672482 -12.5187 -16.7181
ltibia 21.7901
lfoot -211.81 204.401
ltoes -11.3509
